<?xml version="1.0" encoding="UTF-8"?>
<svg id="_ロゴ" data-name="ロゴ" xmlns="http://www.w3.org/2000/svg" viewBox="0 0 341.49 58.22">
  <defs>
    <style>
      .cls-1, .cls-2, .cls-3 {
        fill: #fff;
      }

      .cls-4 {
        fill: #378dcd;
      }

      .cls-5 {
        fill: #a1a2d0;
      }

      .cls-6 {
        fill: #0c858b;
      }

      .cls-2 {
        stroke: #203f87;
        stroke-linejoin: round;
        stroke-width: 1.5px;
      }

      .cls-7 {
        fill: #4f84c4;
      }

      .cls-8 {
        fill: #646fb3;
      }

      .cls-9 {
        fill: #3bb58e;
      }

      .cls-3 {
        stroke: #231815;
        stroke-width: 6px;
      }
    </style>
  </defs>
  <g id="_こみてっく_xFF01_メインロゴ" data-name="こみてっく_xFF01_メインロゴ">
    <path id="_こみてっく_xFF01_枠線" data-name="こみてっく_xFF01_枠線" class="cls-2" d="M186.62,54.45c-.21,0-.42,0-.63-.03-3.92-.33-5.91-3.21-7.67-5.74-3.52-4.85-8.39-9.4-14.49-13.55-2.64-1.87-5.44-3.37-8.32-4.86l-.18-.1-1.01-.52-.09,1.26c-.52,6.24-4.14,11.62-9.23,13.79-2.72,1.16-5.73,1.74-8.95,1.74-.73,0-1.46-.03-2.19-.09-1.46-.12-2.87-.41-4.24-.7-1.93-.42-3.69-1.1-5.23-2l-.64-.38-.38.63c-.78,1.28-1.87,2.27-3.15,2.87-2.18,1-4.94,1.51-8.18,1.51-.95,0-1.94-.04-2.95-.13-7.61-.64-14.03-4.48-17.6-10.52l-.58-.99-.67.93c-.71.98-1.65,1.75-2.71,2.21l-.35.15-.08.38c-.99,4.6-3.26,8.08-6.92,10.65-1.73,1.28-3.4,1.98-5.01,2.1-.16.01-.31.02-.46.02-1.81,0-3.55-.79-4.77-2.17l-.49-.56-.56.49c-1.48,1.29-3.53,2.02-6.27,2.22-.3.02-.6.03-.89.03-3.94,0-7.65-1.96-9.92-5.25-.58-.85-1.07-1.82-1.45-2.87l-.36-.99-.82.66c-5.34,4.32-14.51,6.31-17.2,6.82-2.89.54-5.67.82-8.26.82-11.34,0-18.59-5.28-20.4-14.86-.79-4.18.08-8.58,2.45-12.39.44-.7.93-1.35,1.44-1.91l.85-.94-1.23-.29c-2.97-.71-5.35-3.2-5.92-6.19-.37-1.95.06-4.04,1.18-5.74,1.15-1.74,2.94-2.95,4.91-3.32L37.48.88c.45-.09.92-.13,1.38-.13,3.71,0,6.91,2.69,7.61,6.4.39,2.04-.08,4.21-1.27,5.96-1.07,1.57-2.88,2.73-4.83,3.1l-23.29,4.4,1.24,1.02c1.35,1.11,2.27,2.65,2.59,4.32.52,2.76-.88,4.95-1.48,5.88l-.09.13c-1.03,1.45-1.3,2.06-1.17,2.71.33,1.75,2.18,2.61,5.64,2.61,1.48,0,3.2-.18,4.99-.52,4.28-.81,7.93-2.15,10.84-3.99l.51-.33c1.16-.76,2.59-1.7,4.43-2.05.4-.08.81-.11,1.22-.11,1.49,0,3.01.57,4.26,1.59l.69.57.44-.79c.86-1.54,2.01-2.9,3.42-4.03l1.05-.84-1.27-.45c-2.39-.85-4.05-3.02-4.24-5.53-.13-1.7.42-3.35,1.55-4.65s2.68-2.09,4.37-2.21l12.72-.94c.15-.01.3-.02.45-.02,2.42,0,4.74,1.4,5.9,3.56l.44.82.71-.61c1.02-.87,2.3-1.39,3.7-1.49.13,0,.27-.01.4-.01l1.71-.02-1.17-1.25c-1.39-1.51-2.08-3.5-1.91-5.49.32-3.82,3.51-6.71,7.42-6.71.1,0,.21,0,.31,0l34.51,1.12c.7,0,1,.03,1.07.04,1.98.17,3.76,1.08,5.04,2.57,1.27,1.49,1.89,3.37,1.72,5.31-.05.63-.2,1.26-.42,1.88l-.38,1.04,1.11-.03c.59-.02,1.19-.03,1.8-.03,2.03,0,4.1.08,5.97.24,2.65.22,6.11.69,9.41,2.35,1.56.78,2.92,1.79,4.04,2.99l.68.73.51-.86c.92-1.56,2.33-2.73,4.06-3.4l29.98-12.27c.9-.39,1.93-.6,2.98-.6.23,0,.46,0,.69.03,4.3.45,7.39,4.21,7.03,8.55-.26,3.06-2.2,5.51-5.33,6.71l-16.48,6.31,1.17.81c5.48,3.78,10.25,8.14,14.18,12.95.48.58,1.13,1.37,1.74,2.23l.62.86.61-.87c.87-1.25,2.05-2.26,3.39-2.9l.59-.28-.19-.62c-.43-1.38-.37-2.78-.33-3.61l.96-13.86c.01-.15.03-.31.07-.46l1.99-9.2c.86-4,3.4-6.21,7.13-6.21.81,0,1.67.1,2.63.31,5.05,1.09,7.35,4.51,6.3,9.37l-1.99,9.2c-.03.15-.08.3-.13.45,0,0-4.79,12.85-4.87,13.07-.34.82-.86,2.08-1.79,3.1l-.44.48.42.5c1.73,2.07,2.4,4.76,1.83,7.39-.86,3.96-4.41,6.83-8.45,6.83-.61,0-1.23-.07-1.84-.2-1.69-.37-3.22-1.22-4.41-2.48l-.6-.64-.53.7c-1.46,1.91-3.78,3.05-6.19,3.05Z"/>
    <g id="_こみてっく_xFF01_塗り" data-name="こみてっく_xFF01_塗り">
      <path id="_xFF01_" class="cls-6" d="M205.47,46.5c-.63,2.9-3.48,4.78-6.43,4.14s-4.77-3.53-4.14-6.43c.63-2.9,3.53-4.77,6.43-4.14s4.77,3.53,4.14,6.43ZM205.63,34.45c-.78,1.91-1.34,3.22-3.72,2.71s-2.21-2.07-2.12-3.97l.96-13.78,1.99-9.2c.72-3.35,2.69-4.1,5.9-3.41s4.5,2.3,3.81,5.51l-1.99,9.2-4.82,12.95Z"/>
      <path id="_く" data-name="く" class="cls-7" d="M187.59,40.29c1.8,2.19,3.68,4.59,3.48,6.97s-2.49,4.12-4.82,3.93-3.73-2.14-5.27-4.36c-4.12-5.67-9.56-10.46-15.33-14.39-2.76-1.95-5.65-3.5-8.65-5.06-1.9-.94-3.19-2.46-3-4.69.15-1.81,1.37-3.28,3.04-3.92l30.05-12.3c.7-.31,1.44-.4,2.17-.34,2.38.25,4.29,2.4,4.06,5.04-.17,1.97-1.47,3.27-3.25,3.95l-22.7,8.69c7.63,4.19,14.69,9.69,20.22,16.47Z"/>
      <path id="_っ" data-name="っ" class="cls-5" d="M143.72,41.7c-3,1.27-6.36,1.67-9.59,1.4-1.28-.11-2.58-.38-3.88-.65-1.77-.39-3.52-1.06-5-2.11-.91-.64-1.46-1.73-1.37-2.84.13-1.55,1.52-2.8,3.11-2.67.72.06,1.38.32,2.5.81,1.74.79,3.63,1.23,5.54,1.39,4.9.41,9.15-1.44,9.6-6.82.41-4.9-3.52-6.4-7.66-6.74-3.59-.3-7.2-.24-10.79-.06-.28.02-.56.03-.88,0-1.71-.14-2.94-1.73-2.8-3.45.16-1.95,1.5-2.56,3.24-2.78,3.36-.36,7.77-.31,11.16-.03,2.79.23,5.64.71,8.22,2.02,4.58,2.31,6.27,6.55,5.85,11.53-.39,4.58-2.94,9.14-7.26,10.99Z"/>
      <path id="_て" data-name="て" class="cls-9" d="M86.34,13.11c-2.31,0-4.26-2-4.07-4.34.19-2.25,2.15-3.82,4.36-3.73l34.59,1.12c.58,0,.82.02.86.02,2.2.19,3.97,2.12,3.78,4.36-.12,1.39-.94,2.62-2.2,3.24-.91.45-1.92.46-2.92.38-4.42-.18-9.54-.03-13.56,1.99-3.77,1.9-6.67,5.46-7.03,9.72-.49,5.79,3.98,10.55,9.67,11.03,1.67.14,3.42,0,5.09-.34,1.42-.27,2.15-.4,2.97-.33,2.06.17,3.47,2.31,3.3,4.28-.12,1.39-1.05,2.71-2.35,3.32-2.76,1.26-6.47,1.33-9.48,1.08-10.29-.86-18.29-8.81-17.4-19.43.4-4.78,2.8-9.3,6.61-12.21l-12.22-.16Z"/>
      <path id="_み" data-name="み" class="cls-4" d="M70.88,32.91l-.98,6.85c-.37,2.63-1.04,6.57-3.02,8.48-1.16,1.13-2.98,1.46-4.54,1.58-3.15.23-6.11-1.23-7.9-3.83-1.12-1.64-1.63-3.61-1.77-5.56-.63-8.49,4.81-12.55,12.63-13.53l.54-4.13-9.09.67c-1.68.12-3.22-1.21-3.34-2.88s1.2-3.26,2.92-3.38l12.72-.94c1.68-.12,3.46,1.27,3.59,2.98.03.36.01.72-.04,1.05l-.85,6.36c2.09.13,4.16.37,6.16.91-.18-1.83-.43-3.66-.56-5.45s.99-3.44,2.9-3.58c1.12-.08,2.24.44,2.83,1.35.67.99.9,3.02,1.03,4.78l.1,1.4c.1,1.32.15,2.6.21,3.91,1.92.98,3.63,1.9,3.76,3.69s-1.32,3.31-3.07,3.44c-.28.02-.52,0-.81-.06-.5,4.69-2.06,8.53-6.06,11.32-.95.71-2.14,1.4-3.34,1.49-1.72.13-3.22-1.25-3.34-2.92s.86-2.51,2.17-3.25c2.62-1.48,3.5-3.59,4.06-6.4.17-.98.26-1.94.3-2.95-2.34-.79-4.74-1.25-7.2-1.39ZM58.9,40.09c.11,1.52.88,3.71,2.75,3.57.36-.03.75-.1,1.01-.44.47-.64.85-2.59.99-3.4l.99-6.65c-3.87.77-6.05,2.77-5.74,6.92Z"/>
      <path id="_こ" data-name="こ" class="cls-8" d="M6.48,36.82c-.66-3.47.15-7.07,2.02-10.06,1.06-1.68,2.53-3.12,4.53-3.5,2.15-.41,4.29,1.15,4.7,3.29.25,1.33-.33,2.44-1.03,3.53-1.13,1.59-2.1,3.15-1.72,5.19,1.19,6.28,9.78,5.56,14.43,4.68,4.19-.79,8.38-2.16,11.97-4.43,1.18-.75,2.38-1.67,3.81-1.94,2.2-.41,4.03,1.46,4.42,3.51,1.22,6.44-13.67,10.31-18.26,11.18-10.22,1.93-22.53.92-24.86-11.45ZM9.26,18.78c-2.35.44-4.74-1.28-5.19-3.68s1.15-4.82,3.5-5.27l30.51-5.76c2.4-.45,4.74,1.27,5.19,3.68.23,1.23-.06,2.5-.76,3.53-.62.91-1.72,1.54-2.74,1.73l-30.51,5.76Z"/>
    </g>
  </g>
  <g>
    <path class="cls-3" d="M230.17,20.5c1.32-1.48,2.24-2.84,3.24-4.56,1.12-1.92,1.8-2.96,3.72-2.96,1.4,0,3.6.88,3.6,2.56,0,.08-.04.16-.04.24h3c.28-.6.48-1.08.72-1.44.56-.92,1.2-1.24,2.76-1.24,1.2,0,3.76.2,3.76,1.84,0,.28-.04.56-.12.84h3.24c1.84,0,2.68.8,2.68,2.64s-1,2.48-2.68,2.48h-4v1.44h3.68c1.32,0,2.28.48,2.28,1.92s-.96,1.92-2.28,1.92h-3.68v1.44h3.8c1.24,0,2.16.44,2.16,1.84s-.92,1.84-2.16,1.84h-3.8v1.44h4.64c1.68,0,2.68.72,2.68,2.52s-1,2.52-2.68,2.52h-12.84v1.48h12.48c2.24,0,3.28,1.04,3.28,3.28,0,2.12-1.24,3.08-3.28,3.08h-12.48v2.76c0,2.4-1.16,3.28-3.48,3.28-2.16,0-3.16-1.16-3.16-3.28v-2.76h-12.6c-2.24,0-3.28-1.04-3.28-3.28s1.24-3.08,3.28-3.08h12.6v-2.08c-1.76-1.04-1.88-2.76-1.88-4.64v-5.76c-.48.36-.92.56-1.52.56-1.16,0-2.2-.68-2.92-1.52-.16.68-.4,1.04-.8,1.6.16-.04.48-.08.64-.08,1.56,0,3.12,1.28,3.12,2.92,0,.72-.4,1.48-.96,2.24-.52.68-1.12,1.32-1.6,1.8-.88.92-2.64,2.64-3.64,3.4-.6.48-1.24.88-2.04.88-1.72,0-3.32-1.84-3.32-3.52,0-1.16.76-1.84,2.12-2.92,1.44-1.12,2.84-2.44,4.08-3.64-.16,0-.28.04-.4.04-.48,0-1.2-.24-1.92-.6-.88-.44-1.92-1.04-2.72-1.4-1.12-.52-1.92-1-1.92-2.36,0-1.68,1.16-3.32,2.92-3.32.48,0,1.36.28,2.24.68,1.36.6,2.88,1.44,3.48,1.88.2-.96,1.32-2.16,2-2.92ZM223.93,13.26c.52,0,1.28.2,2,.48.84.32,1.64.72,2.16.96,1.48.72,2.56,1.44,2.56,2.76,0,1.24-1.04,3.4-2.88,3.4-1.4,0-3.4-1.48-4.76-2.12-1.04-.48-1.92-.88-1.92-2.2,0-1.48,1.24-3.28,2.84-3.28ZM240.37,20.9c-.4,0-.64.24-.64.64v.8h4.36v-1.44h-3.72ZM239.73,26.18v1.44h4.36v-1.44h-4.36ZM244.09,31.3h-4.36v.8c0,.44.24.64.64.64h3.72v-1.44Z"/>
    <path class="cls-3" d="M268.97,41.38c.4-1.92.56-4.6.56-6.72v-7.08h-.12c-.72,0-1.56-.8-1.56-2.48,0-1.96.84-2.64,2.72-2.64h3.92v-1.44h-2.4c-1.88,0-2.72-.8-2.72-2.68,0-1.76,1.04-2.48,2.72-2.48h2.4v-.32c0-2.12,1.68-2.36,3.12-2.36,2,0,3.24.52,3.24,2.32v.36h4.4v-.4c0-2.08,1.64-2.28,3.2-2.28,1.84,0,3.08.52,3.08,2.28v.4h2.44c1.88,0,2.72.8,2.72,2.68s-1.04,2.48-2.72,2.48h-2.44v1.44h3.36c1.92,0,2.68.88,2.68,2.6,0,1.92-1.04,2.52-2.68,2.52h-19.84v6.76c0,4.16-.36,8.96-1.4,13.12-.56,2.32-1.04,3.32-2.76,3.32-1.2,0-2.72-.44-3.24-1.64-.12,2-1.28,2.48-3.12,2.48s-2.84-.84-2.84-2.76v-14.48c-2.08-.04-2.92-2.4-2.92-4.12,0-1.24.32-1.96,1.36-3.6,1.84-2.92,3.08-7.64,3.84-11.28.32-1.44,1.08-2.04,2.52-2.04,1.64,0,3,.8,3,2.56,0,1.92-1.24,6.64-1.84,8.6v22.36c.36-1.72.92-3.64,1.32-5.48ZM280.61,48.86c0,1.8-.72,2.68-2.56,2.68s-2.4-1.04-2.4-2.68v-15.36c0-3.52,1.44-4.96,4.96-4.96h10.52c3.52,0,5,1.44,5,4.96v13.72c0,3.96-.96,4.16-4.64,4.16-1.96,0-3.28-.36-3.28-2.72,0-1.12.44-2.2,1.64-2.28.4-.04.44-.32.44-.96v-1.04h-2.4v4.2c0,1.64-.68,2.68-2.44,2.68s-2.48-1.04-2.48-2.68v-4.2h-2.36v4.48ZM282.97,32.94h-1.72c-.44,0-.64.2-.64.64v.92h2.36v-1.56ZM280.61,38.66v1.68h2.36v-1.68h-2.36ZM280.85,21.02v1.44h4.4v-1.44h-4.4ZM290.29,34.5v-.92c0-.44-.2-.64-.64-.64h-1.76v1.56h2.4ZM287.89,40.34h2.4v-1.68h-2.4v1.68Z"/>
    <path class="cls-3" d="M302.61,29.46c-2.08,0-3.36-2.04-3.36-3.96,0-1.64.72-2.36,2.16-2.92,4.92-2.04,7.88-3.56,11.8-7.28,1.72-1.64,2.84-2.36,5.28-2.36s3.56.72,5.24,2.32c3.84,3.64,6.88,5.28,11.76,7.24,1.52.64,2.24,1.28,2.24,3.04,0,1.88-1.28,3.92-3.36,3.92-1.08,0-2.32-.52-5.2-2.12-.4,1.56-1.64,1.96-3.08,1.96h-15.24c-1.48,0-2.64-.36-3.08-1.92-2.64,1.56-4.32,2.08-5.16,2.08ZM313.73,50.14c-4.16.28-9.52.6-9.84.6-2.28,0-3.2-1.28-3.2-3.48s.92-3,2.8-3.12c1.44-.08,2.44-.08,2.92-.08.96-2,1.76-4.04,2.4-6.16h-5.32c-2.36,0-3.24-1.04-3.24-3.36,0-2.16,1.2-3.04,3.24-3.04h29.96c2.32,0,3.24,1.08,3.24,3.36,0,2.16-1.2,3.04-3.24,3.04h-4.4c.6.48,1.4,1.32,3.4,3.72,1.04,1.24,2,2.44,2.88,3.76.48.68.88,1.36.88,2.24,0,2.16-2.4,3.56-4.28,3.56-1.2,0-1.56-.4-2.88-2.4-3.08.44-6.56.76-15.32,1.36ZM323.25,40.18c0-.92.76-1.8,1.48-2.28h-8.6c-.84,2-1.72,4-2.68,5.96,3.88-.08,8.16-.28,11.72-.48-1.76-2.04-1.92-2.24-1.92-3.2ZM323.45,23.46c-1.4-1.16-2.72-2.36-4-3.64-.48-.48-.64-.6-.96-.6-.28,0-.48.12-1.24.88-1.2,1.16-2.44,2.28-3.72,3.36h9.92Z"/>
  </g>
  <g>
    <path class="cls-1" d="M230.17,20.5c1.32-1.48,2.24-2.84,3.24-4.56,1.12-1.92,1.8-2.96,3.72-2.96,1.4,0,3.6.88,3.6,2.56,0,.08-.04.16-.04.24h3c.28-.6.48-1.08.72-1.44.56-.92,1.2-1.24,2.76-1.24,1.2,0,3.76.2,3.76,1.84,0,.28-.04.56-.12.84h3.24c1.84,0,2.68.8,2.68,2.64s-1,2.48-2.68,2.48h-4v1.44h3.68c1.32,0,2.28.48,2.28,1.92s-.96,1.92-2.28,1.92h-3.68v1.44h3.8c1.24,0,2.16.44,2.16,1.84s-.92,1.84-2.16,1.84h-3.8v1.44h4.64c1.68,0,2.68.72,2.68,2.52s-1,2.52-2.68,2.52h-12.84v1.48h12.48c2.24,0,3.28,1.04,3.28,3.28,0,2.12-1.24,3.08-3.28,3.08h-12.48v2.76c0,2.4-1.16,3.28-3.48,3.28-2.16,0-3.16-1.16-3.16-3.28v-2.76h-12.6c-2.24,0-3.28-1.04-3.28-3.28s1.24-3.08,3.28-3.08h12.6v-2.08c-1.76-1.04-1.88-2.76-1.88-4.64v-5.76c-.48.36-.92.56-1.52.56-1.16,0-2.2-.68-2.92-1.52-.16.68-.4,1.04-.8,1.6.16-.04.48-.08.64-.08,1.56,0,3.12,1.28,3.12,2.92,0,.72-.4,1.48-.96,2.24-.52.68-1.12,1.32-1.6,1.8-.88.92-2.64,2.64-3.64,3.4-.6.48-1.24.88-2.04.88-1.72,0-3.32-1.84-3.32-3.52,0-1.16.76-1.84,2.12-2.92,1.44-1.12,2.84-2.44,4.08-3.64-.16,0-.28.04-.4.04-.48,0-1.2-.24-1.92-.6-.88-.44-1.92-1.04-2.72-1.4-1.12-.52-1.92-1-1.92-2.36,0-1.68,1.16-3.32,2.92-3.32.48,0,1.36.28,2.24.68,1.36.6,2.88,1.44,3.48,1.88.2-.96,1.32-2.16,2-2.92ZM223.93,13.26c.52,0,1.28.2,2,.48.84.32,1.64.72,2.16.96,1.48.72,2.56,1.44,2.56,2.76,0,1.24-1.04,3.4-2.88,3.4-1.4,0-3.4-1.48-4.76-2.12-1.04-.48-1.92-.88-1.92-2.2,0-1.48,1.24-3.28,2.84-3.28ZM240.37,20.9c-.4,0-.64.24-.64.64v.8h4.36v-1.44h-3.72ZM239.73,26.18v1.44h4.36v-1.44h-4.36ZM244.09,31.3h-4.36v.8c0,.44.24.64.64.64h3.72v-1.44Z"/>
    <path class="cls-1" d="M268.97,41.38c.4-1.92.56-4.6.56-6.72v-7.08h-.12c-.72,0-1.56-.8-1.56-2.48,0-1.96.84-2.64,2.72-2.64h3.92v-1.44h-2.4c-1.88,0-2.72-.8-2.72-2.68,0-1.76,1.04-2.48,2.72-2.48h2.4v-.32c0-2.12,1.68-2.36,3.12-2.36,2,0,3.24.52,3.24,2.32v.36h4.4v-.4c0-2.08,1.64-2.28,3.2-2.28,1.84,0,3.08.52,3.08,2.28v.4h2.44c1.88,0,2.72.8,2.72,2.68s-1.04,2.48-2.72,2.48h-2.44v1.44h3.36c1.92,0,2.68.88,2.68,2.6,0,1.92-1.04,2.52-2.68,2.52h-19.84v6.76c0,4.16-.36,8.96-1.4,13.12-.56,2.32-1.04,3.32-2.76,3.32-1.2,0-2.72-.44-3.24-1.64-.12,2-1.28,2.48-3.12,2.48s-2.84-.84-2.84-2.76v-14.48c-2.08-.04-2.92-2.4-2.92-4.12,0-1.24.32-1.96,1.36-3.6,1.84-2.92,3.08-7.64,3.84-11.28.32-1.44,1.08-2.04,2.52-2.04,1.64,0,3,.8,3,2.56,0,1.92-1.24,6.64-1.84,8.6v22.36c.36-1.72.92-3.64,1.32-5.48ZM280.61,48.86c0,1.8-.72,2.68-2.56,2.68s-2.4-1.04-2.4-2.68v-15.36c0-3.52,1.44-4.96,4.96-4.96h10.52c3.52,0,5,1.44,5,4.96v13.72c0,3.96-.96,4.16-4.64,4.16-1.96,0-3.28-.36-3.28-2.72,0-1.12.44-2.2,1.64-2.28.4-.04.44-.32.44-.96v-1.04h-2.4v4.2c0,1.64-.68,2.68-2.44,2.68s-2.48-1.04-2.48-2.68v-4.2h-2.36v4.48ZM282.97,32.94h-1.72c-.44,0-.64.2-.64.64v.92h2.36v-1.56ZM280.61,38.66v1.68h2.36v-1.68h-2.36ZM280.85,21.02v1.44h4.4v-1.44h-4.4ZM290.29,34.5v-.92c0-.44-.2-.64-.64-.64h-1.76v1.56h2.4ZM287.89,40.34h2.4v-1.68h-2.4v1.68Z"/>
    <path class="cls-1" d="M302.61,29.46c-2.08,0-3.36-2.04-3.36-3.96,0-1.64.72-2.36,2.16-2.92,4.92-2.04,7.88-3.56,11.8-7.28,1.72-1.64,2.84-2.36,5.28-2.36s3.56.72,5.24,2.32c3.84,3.64,6.88,5.28,11.76,7.24,1.52.64,2.24,1.28,2.24,3.04,0,1.88-1.28,3.92-3.36,3.92-1.08,0-2.32-.52-5.2-2.12-.4,1.56-1.64,1.96-3.08,1.96h-15.24c-1.48,0-2.64-.36-3.08-1.92-2.64,1.56-4.32,2.08-5.16,2.08ZM313.73,50.14c-4.16.28-9.52.6-9.84.6-2.28,0-3.2-1.28-3.2-3.48s.92-3,2.8-3.12c1.44-.08,2.44-.08,2.92-.08.96-2,1.76-4.04,2.4-6.16h-5.32c-2.36,0-3.24-1.04-3.24-3.36,0-2.16,1.2-3.04,3.24-3.04h29.96c2.32,0,3.24,1.08,3.24,3.36,0,2.16-1.2,3.04-3.24,3.04h-4.4c.6.48,1.4,1.32,3.4,3.72,1.04,1.24,2,2.44,2.88,3.76.48.68.88,1.36.88,2.24,0,2.16-2.4,3.56-4.28,3.56-1.2,0-1.56-.4-2.88-2.4-3.08.44-6.56.76-15.32,1.36ZM323.25,40.18c0-.92.76-1.8,1.48-2.28h-8.6c-.84,2-1.72,4-2.68,5.96,3.88-.08,8.16-.28,11.72-.48-1.76-2.04-1.92-2.24-1.92-3.2ZM323.45,23.46c-1.4-1.16-2.72-2.36-4-3.64-.48-.48-.64-.6-.96-.6-.28,0-.48.12-1.24.88-1.2,1.16-2.44,2.28-3.72,3.36h9.92Z"/>
  </g>
</svg>